# xmcd
#
# Track frame offsets: 
#        150
#        27587
#        43827
#        61622
#        77742
#        99500
#        125327
#        147005
#        172835
#        177065
#        207670
#        231795
#
# Disc length: 3310 seconds
#
# Revision: 11
# Processed by: cddbd v1.5.2PL0 Copyright (c) Steve Scherf et al.
# Submitted via: ExactAudioCopy v1.0b3
#
DISCID=9a0cec0c
DTITLE=Judas Priest - Painkiller
DYEAR=1990
DGENRE=Heavy Metal
TTITLE0=Painkiller
TTITLE1=Hell Patrol
TTITLE2=All Guns Blazing
TTITLE3=Leather Rebel
TTITLE4=Metal Meltdown
TTITLE5=Night Crawler
TTITLE6=Between The Hammer and The Anvil
TTITLE7=A Touch Of Evil
TTITLE8=Battle Hymn
TTITLE9=One Shot At Glory
TTITLE10=Living Bad Dreams (Bonus Track)
TTITLE11=Leather Rebel (Live) (Bonus Track)
EXTD=YEAR: 1990
EXTT0=
EXTT1=
EXTT2=
EXTT3=
EXTT4=
EXTT5=
EXTT6=
EXTT7=
EXTT8=
EXTT9=
EXTT10=Living Bad Dreams [Bonus Track]
EXTT11=Leather Rebel [Live][Bonus Track]
PLAYORDER=
